<?xml version="1.0" encoding="utf-8"?>
<!-- Generator: Adobe Illustrator 21.1.0, SVG Export Plug-In . SVG Version: 6.00 Build 0)  -->
<svg version="1.1" id="Capa_1" xmlns="http://www.w3.org/2000/svg" xmlns:xlink="http://www.w3.org/1999/xlink" x="0px" y="0px"
	 viewBox="0 0 200 200" style="enable-background:new 0 0 200 200;" xml:space="preserve">
<style type="text/css">
	.st0{fill:#111111;}
</style>
<g>
	<polygon class="st0" points="75.6,144.8 0.9,130.8 1.6,130 27.8,132.6 84.6,137 141.1,133.7 196,130.6 196.5,131.7 	"/>
	<polygon class="st0" points="56.4,120.1 58.9,120.1 55.6,115 58.4,116 54.9,110.4 56.6,110.9 53.8,105.5 51,110.9 52.6,110.4 
		49.1,116 52,115 48.6,120.1 51.1,120.1 47.7,126.5 53,126.1 53,129.9 53.8,129.9 54.6,129.9 54.6,126.1 59.9,126.5 	"/>
	<path class="st0" d="M99.1,67.5l1.9,63.2l-1.9,0.1l-1.5-49.7c-9.5-2.4-9.4-2.6-18.5-2.4c-1.3,0-2-0.4-1.9-1
		c2.2-0.9,4.2-1.5,7.2-2.2c-2.9,0.3-5,0.8-6.4,1.2c1.1-1.1,3.3-2.3,6.8-2.4c0.9,0,1.7-0.6,0.8-1.6c1.3-0.3,3.9,0,4.8,1.5
		c1.3,2.2-3.3,2.8-4.5,3l11.7,2.9l-0.4-12.8c-8,0.4-16.8,1.9-15.7,5.5c-2.9-0.4-3.9-2.8-4.2-3.8c2.6-1.9,5.7-2.9,13.6-4.3
		c-8.5,0.3-10.9,1.5-12.7,2C71.7,57,92.8,55.2,99.9,54.5c-4.7-0.6-10.2,0.1-17.7,2.3c19-8.9,37.1-5.6,35.8,1.4
		c-7-1.5-15.8-1.7-26-0.7c7.3,0.1,16.5,0.7,27.5,3.4c0.5,0.1,0.4,2.7,0.3,4.7c-4.8-2.1-11.7-4-18.1-3.6c6.5,0.9,12.5,2.7,17.7,4.9
		C117.4,73.8,108.5,67.3,99.1,67.5z"/>
	<polygon class="st0" points="190.7,129.7 168.1,102.6 162.8,101.4 151.8,107.6 146.5,99.9 112.3,131.5 157.5,130.8 	"/>
	<polygon class="st0" points="152.1,105.5 162.8,100.1 168.1,101.7 158,89.6 146.9,99.3 	"/>
	<polygon class="st0" points="123.4,113.3 126.6,113.3 122.2,105.6 126,107.1 121.4,98.7 123.6,99.5 119.9,91.2 116.2,99.5 
		118.4,98.7 113.8,107.1 117.5,105.6 113.1,113.3 116.4,113.3 111.9,122.9 118.8,122.3 118.8,128 119.9,128 120.9,128 120.9,122.3 
		127.9,122.9 	"/>
	<polygon class="st0" points="82.4,115.8 86.2,115.8 81,108.1 85.4,109.6 80,101.2 82.6,102 78.2,93.8 73.9,102 76.5,101.2 
		71.1,109.6 75.5,108.1 70.3,115.8 74.1,115.8 68.8,125.3 77,124.8 77,130.5 78.2,130.5 79.5,130.5 79.5,124.8 87.7,125.3 	"/>
	<path class="st0" d="M184,98.6l-1.5,31.5h-0.9l1.2-24.7c-4.6-1.5-4.6-1.7-9.1-1.9c-0.7,0-1-0.3-0.9-0.6c1.1-0.4,2.2-0.6,3.7-0.8
		c-1.5,0-2.5,0.2-3.2,0.4c0.6-0.5,1.7-1,3.4-0.9c0.5,0,0.9-0.2,0.5-0.7c0.6-0.1,1.9,0.1,2.3,1c0.5,1.1-1.7,1.3-2.4,1.3l5.7,1.9
		l0.3-6.4c-4-0.1-8.4,0.3-8,2.1c-1.4-0.3-1.8-1.5-1.9-2.1c1.4-0.9,2.9-1.2,6.9-1.6c-4.2-0.2-5.5,0.3-6.4,0.5
		c-2.8-5.1,7.7-5.2,11.2-5.2c-2.3-0.5-5-0.3-8.9,0.5c9.8-3.7,18.6-1.3,17.7,2.1c-3.4-1-7.8-1.5-12.9-1.3c3.6,0.3,8.2,1,13.5,2.8
		c0.3,0.1,0.1,1.3-0.1,2.3c-2.3-1.3-5.6-2.4-8.8-2.5c3.2,0.7,6.1,1.8,8.6,3.1C192.9,102.4,188.7,98.8,184,98.6z"/>
	<polygon class="st0" points="131.8,125.9 91.8,130.5 38.8,127.8 5.7,128.7 5.3,129.1 25.6,130.5 87.8,135 152.7,132 198.8,129.6 
		198.4,128.9 	"/>
	<g>
		<g>
			<g>
				<g>
					<path class="st0" d="M156.2,79.9l-3.3-0.3c-0.1,0-0.1,0-0.2,0c0,0-1.8-0.3-2.5-0.4c-0.5-0.1-1-0.2-1.2-0.2
						c-0.1,0-0.2,0-0.4-0.1c-0.1,0-0.5-0.3-0.6-0.3s-0.2-0.1-0.3-0.1c0.1,0,0.1-0.1,0.3-0.1c0.2-0.1,0.3-0.3,0.3-0.3
						c0.1-0.1,0.3-0.2,0.3-0.2l0,0l0,0c-0.1-0.3-0.2-0.3-0.5-0.2c-0.1,0-0.2,0-0.3,0c-0.3,0-0.4,0.2-0.5,0.3c0,0-0.1,0.2-0.2,0.2
						c-0.2,0-0.4-0.1-0.6-0.1c-0.2,0-0.7-0.2-1.2-0.6c-0.3-0.1-0.5-0.3-0.8-0.5c-0.6-0.3-1.1-0.8-1.6-1.1c-0.3-0.2-0.5-0.3-0.7-0.4
						c-0.4-0.2-0.5-0.3-0.5-0.3s-0.1,0-0.1-0.1c0,0-0.1,0-0.1-0.1l-3-2c0,0-0.1,0,0,0c0,0,0.2,0.4,0.6,0.7c0.3,0.2,1.7,1,1.7,1l0,0
						l-2.5-1.2c0,0-0.1,0.1,0.1,0.2c0.2,0.2,0.4,0.3,0.7,0.5l1.8,0.8c0,0,0,0,0.1,0c0,0,0,0-0.1,0c0,0-3.1-1-2.9-0.8
						c0.2,0.2,2.5,0.9,2.5,0.9c0.1,0,0,0,0,0l-2.2-0.2c-0.1,0-0.1,0,0,0l1.9,0.4c0.1,0,0.1,0,0,0l-2-0.1c-0.1,0-0.1,0,0,0l1.6,0.3
						c0.1,0,0.1,0,0,0l-1.3,0.1c-0.1,0-0.1,0,0,0l1.2,0.1c0.1,0,0.1,0,0,0l-1,0.1c-0.1,0-0.1,0,0,0l1.1,0.1c0.1,0,0.1,0,0,0
						l-0.6,0.1c-0.1,0-0.1,0,0,0c0,0,0.8,0.1,0.9,0.2c0,0.1,0.2,0.2,0.2,0.2s0.1,0,0.2,0c0,0,0.2-0.1,0.1,0l0,0c0,0-0.1,0.1,0,0.1
						h0.1c0,0,0.1,0,0,0v0.1l0.1,0.1c0,0,0.1,0,0,0l0,0h0.1c0,0,0.1,0,0,0c0,0,0,0.1,0.1,0.1l0.1,0.1h0.1l0,0h0.1V77
						c0,0,0.1,0.1,0.1,0l0,0c0,0,0,0,0,0.1h0.1l0,0v0.1h0.1l0,0c0,0,0.1,0,0,0l0,0v0.1h0.1c0,0,0.1,0,0,0v0.1c0,0,0.1,0,0.2,0l0,0
						v0.1c0,0,0.1,0,0.2,0l0,0c0,0,0.1,0,0,0l0,0v0.1c0,0,0.1,0,0.2,0l0,0c0,0,0.1,0,0,0l0,0v0.1c0,0,0.1,0,0.2,0l0,0l0,0l0,0v0.1
						h0.1l0,0c0,0,0,0.1,0.1,0.1h0.2v-0.1l0,0v0.1c0,0.1,0,0.1,0,0.1h0.1l0,0l0,0c0,0.1,0,0.1,0.1,0.1h0.1l0,0v0.1h0.1l0,0v0.1h0.1
						l0,0c0,0,0.1,0,0,0s0,0.1,0,0.1h0.2l0,0c0,0,0.1,0,0,0v0.1h0.1c0,0,0.1,0,0,0v0.1h0.2l0,0v0.1c0,0,0.1,0,0.2,0l0,0l0,0
						c0,0,0.1,0.1,0,0.1l-1.3,0.3c-0.1,0-0.1,0,0,0l0,0l0,0l0,0l0,0l0,0l0,0c0,0,0,0,0.1,0s0,0,0,0v0.1c0,0,0.1,0.1,0.1,0l0,0v0.1
						l0,0l0,0c0,0,0.1,0.1,0.1,0l0,0l-0.1,0.1c0,0,0,0.1,0.1,0.1l0,0v0.1l0,0l0,0c0,0,0,0,0.1,0l0,0l0,0l0,0v0.1c0,0,0,0,0.1,0l0,0
						l0,0h0.1l0,0l0,0l0,0l0,0l0,0c0,0,0,0,0.1,0l0.1-0.1l0,0l0,0l0,0c0,0-0.1,0.1,0,0.1c0,0,0,0,0.1,0l0,0l0,0l0,0l0,0
						c0,0,0,0,0.1,0l0,0v0.1c0,0,0.1,0.1,0.2,0l0,0l0,0l0,0v0.1l0,0h0.1h0.1l0,0V80h0.1l0,0c0,0,0.1,0,0,0v0.1h0.1l0,0l0,0v0.1
						c0,0.1,0,0.1,0,0.1h0.1l0,0v0.1c0,0,0,0,0.1-0.1l0.1-0.1l0,0v0.1v0.1l0,0l0,0c0,0,0.1,0,0.1-0.1l0,0v0.1h0.1l0,0l0,0
						c0,0,0.1,0,0.1-0.1l0.1-0.1l0,0l-0.1,0.1v0.1l0,0l0,0c0,0,0,0,0.1,0l0,0v0.1h0.1l0,0v0.1c0,0,0.1,0,0.1-0.1v-0.1
						c0-0.1,0-0.1,0,0v0.1c0,0.1,0,0.1,0.1,0.1l0,0l0,0c0,0,0,0,0-0.1l0,0v0.1h0.1l0,0v0.1c0,0,0,0,0-0.1c0,0,0-0.3,0-0.2v0.2
						c0,0.1,0,0.1,0,0.1s0,0,0-0.1v-0.1c0,0,0,0,0,0.1h0.1l0.2-1.6c0-0.1,0-0.1,0.1-0.1h0.1l0,0l0.1,0.1h0.2c0,0,0.1,0,0,0v0.1h0.1
						l0,0c0,0,0,0.1,0.1,0.1h0.2l0.1-0.1l0,0v0.1c0,0.1,0,0.1,0,0.1h0.1l0,0v0.1c0,0,0.1,0,0.2,0l0.1-0.1c0,0,0.1,0,0,0v0.1v0.1
						c0,0,0.1,0,0.1-0.1c0,0,0.1,0,0,0v0.1c0,0,0.1,0,0.1-0.1v-0.1l0,0v0.1v0.1c0,0,0.1,0,0.1-0.1l0.1-0.1l0,0l0,0
						c0,0.1,0,0.1,0,0.1l0,0l0,0c0,0,0.1,0,0.1-0.1l0,0h0.1v0.1c0,0,0.1,0,0.1-0.1l0,0c0,0,0,0.1,0.1,0.1h0.2l0,0c0,0,0.1,0,0,0
						c0,0,0,0.1,0.1,0.1s0.2,0,0.2-0.1l0,0c0-0.1,0-0.1,0,0l0,0c0,0.1,0,0.1,0.1,0.1c0,0,0.1,0,0.2-0.1l0,0l0,0l0,0
						c0,0.1,0,0.1,0,0.1s0.1,0,0.1-0.1l0.1-0.1l0,0l-0.1,0.1v0.1c0,0,0.1,0,0.2,0l0,0v0.1c0,0,0.1,0,0.2-0.1l0,0l0,0l0,0
						c0,0.1,0,0.1,0.1,0.1h0.2c0.1,0,0.1,0,0.1-0.1v-0.1l0,0v0.1c0,0.1,0,0.1,0,0.1l0.1-0.1l0,0l0.1,0.1l0.1-0.1l0,0h0.1l0.1-0.1
						l0,0c0-0.1,0-0.1,0,0l0,0c0,0.1,0,0.1,0.1,0.1l0,0h0.1h0.1l0,0c0,0,0,0,0.1,0h0.1l0,0v0.1h0.1v-0.1c0-0.1,0-0.1,0,0v0.2
						c0,0.1,0.1,0.1,0.1,0.1s0.1,0,0.1,0.1s0.1,0.1,0.1,0.1l0.4,0.3h0.1l-0.1-0.4c0-0.1,0-0.1,0.1,0l0.6,0.5c0,0,0.1,0,0,0l-0.5-0.7
						l0,0l1.1,0.7c0,0,0.1,0,0,0l-0.7-0.7l0,0l1,0.6c0,0,0.1,0,0,0l-1-0.9l0,0L155,82c0,0,0.1,0,0,0l-1.6-1.2l0,0l1.8,0.8
						c0,0,0.1,0,0,0l-1.9-1.2h-0.1c0,0,0,0,0.1,0c0,0,2.2,0.8,2.4,0.8s-2.3-1-2.3-1h-0.1h0.1l2,0.4c0.3,0.1,0.4-0.1,0.4-0.1l-2-0.5
						c-0.1,0,0,0,0,0h0.2c0.1,0,0.1,0,0.2,0c0,0,0.7,0.1,0.9,0.1C155.8,80.1,156.2,79.9,156.2,79.9L156.2,79.9z"/>
				</g>
			</g>
		</g>
	</g>
</g>
<g>
	<path class="st0" d="M46,163.2c0,0-3.9,12.1-4.6,14.1c-0.7,2.1-3.1,9.5-3.2,10c-0.1,0.5,0.6,1.4,0.9,1.4c0.3,0,0.5,0.6,1-0.7
		s2.9-7.7,3.2-8.9c0.3-1.1,3.4-11.3,3.6-12c0.2-0.7,0.9-3.1,0.9-3.1C47.6,163.2,46.2,162.7,46,163.2z"/>
	<path class="st0" d="M39.6,189.3c-0.2,0-0.3-0.1-0.4-0.1c-0.4,0-0.8-0.4-1-0.7c-0.2-0.2-0.6-0.8-0.4-1.4c0.1-0.4,2.5-7.9,3.2-10
		c0.7-2,4.5-14,4.6-14.1l0,0c0.1-0.3,0.4-0.5,0.8-0.5c0.7,0,1.8,0.5,2.1,1.3l0.1,0.2l-1.3,4.4c-0.8,2.7-3,9.9-3.2,10.8
		c-0.2,0.8-1.2,3.4-2.3,6.5c-0.4,1.1-0.7,2-0.9,2.4c-0.2,0.7-0.5,1-0.8,1.2C39.8,189.3,39.7,189.3,39.6,189.3z"/>
</g>
<g>
	<path class="st0" d="M131.7,197.7c-0.3,0-0.7-0.1-0.9-0.3c-0.3-0.1-0.9-0.5-1-1.1c-0.1-0.4-1.2-8.2-1.5-10.4
		c-0.2-2.1-2-14.6-2-14.7l0,0c0-0.3,0.1-0.7,0.5-0.8c0.6-0.3,1.8-0.3,2.4,0.3l0.1,0.1l0.7,4.6c0.4,2.8,1.6,10.2,1.8,11.1
		c0.2,0.8,0.4,3.6,0.7,6.9c0.1,1.1,0.2,2.1,0.2,2.5c0.1,0.7,0,1.1-0.2,1.4c-0.2,0.3-0.5,0.3-0.7,0.3
		C131.9,197.7,131.8,197.7,131.7,197.7z"/>
</g>
<g>
	<path class="st0" d="M108.7,199c-0.6,0-1.2-0.2-1.6-0.6l-0.1-0.1V198c0-0.3-0.2-2.6-0.2-3.2l-0.1-1c-0.2-2.6-0.7-10.5-0.8-11.4
		c-0.1-1.1-0.2-7-0.2-9.5c0-0.3,0.1-1,1.4-1.2c0.7-0.1,2.2-0.1,2.5,0.8c0.2,0.5,1.9,7,2.4,9c0.2,0.9,0.9,3.6,1.6,6.2
		c0.1-0.4,0.1-0.9,0.1-1.3c0.1-0.7,0.2-1.3,0.2-1.8c0-0.1,0-0.4,0.1-0.8c0.1-2,0.5-6.6,1.3-11.5c0.1-1.2,2.5-1.6,3.2-1.6l0,0
		c0.8,0,1,0.4,1,0.6l0.5,4.2c0.3,2.6,1.1,10.5,1.2,11.4c0.1,0.8,0.3,4.4,0.4,7.1c0,1.1,0.1,2,0.1,2.4c0.1,1.1-0.5,1.6-1.1,1.6
		c-1.2,0.1-1.9-0.6-2-1.4c-0.1-0.4-0.8-8.3-0.9-10.5c0-0.5-0.1-1.6-0.2-2.9c-0.1,1.3-0.2,2.5-0.2,2.8c0,0.8-0.5,3.6-1,6.9
		c-0.2,1.1-0.3,2.1-0.4,2.5c0,0.3-0.1,1.1-0.8,1.4c-0.6,0.2-1.5,0.3-2.1-0.1l-0.2-0.1l-0.1-0.3c-0.1-0.3-0.7-2.5-0.9-3.1l-0.3-1.2
		c-0.5-1.6-1.4-4.8-2.1-7.4c0.2,4,0.7,13.2,0.7,13.3c0,0.3-0.2,0.6-0.5,0.8C109.2,199,109,199,108.7,199z"/>
</g>
<g>
	<path class="st0" d="M58.7,193.3c-0.5,0-1-0.2-1.3-0.3c-1.5-0.8-1.6-1.2-1.6-1.4c0-0.5-0.1-8.3,0-10.5c0-1,0-4,0-7.1
		c-0.9,4.3-1.4,6.9-1.5,7.4c-0.1,0.8-0.8,3.5-1.7,6.7c-0.3,1.1-0.6,2-0.7,2.5c-0.1,0.6-0.3,1-0.7,1.2s-0.7,0.1-1,0
		c-0.5-0.2-1.6-1-1.4-1.9c0.1-0.4,1.7-8.1,2.3-10.3c0.5-2.1,3.2-14.3,3.3-14.5c0-0.2,0.3-0.7,1.1-0.6c0.2,0,0.6,0.1,1,0.2l0.2,0.1
		c0.9,0.3,2,0.9,2,1.5l0.1,4.5c0,1.8,0.1,5.7,0.2,8.4c0.2-1.2,0.4-1.9,0.4-2.1c0.1-1,1.3-5.5,2.3-9.2c0.2-0.7,0.4-1,0.7-1.2
		s0.6-0.1,0.8,0h0.1c1.5,0.4,1.5,1.5,1.5,1.9c-0.1,0.4-1.6,8.1-2.2,10.3c-0.5,2.1-3,13.7-3,13.8c0,0.2-0.2,0.4-0.4,0.5
		C59.1,193.3,58.9,193.3,58.7,193.3z"/>
</g>
<g>
	<path class="st0" d="M32.2,46.6c-0.6,0-1.2-0.1-1.5-0.6c-0.2-0.4-4.2-7.2-5.3-9.1c-1-1.9-7.3-12.8-7.3-12.9
		c-0.1-0.2-0.3-0.7,0.4-1.2c0.2-0.1,0.5-0.3,0.9-0.5l0.2-0.1c0.9-0.4,2.1-0.7,2.5-0.2l3.2,3.3c1.2,1.3,3.8,4,5.7,6
		c-0.7-1.2-1-1.7-1.2-1.8c-0.7-1-3.6-6.6-4.5-8.3c-0.3-0.6-0.4-1-0.3-1.4c0.1-0.3,0.4-0.5,0.6-0.5h0.1c1.4-0.7,2.1,0.1,2.4,0.4
		c0.2,0.4,4.3,7.1,5.3,9.1c1,1.9,7,12.1,7.1,12.2c0.1,0.2,0.1,0.4,0.1,0.6c-0.2,0.5-1,1-1.5,1.2c-1.7,0.4-2,0.1-2.1,0
		c-0.3-0.3-5.7-6-7.1-7.7c-0.6-0.7-2.7-3-4.7-5.2c2.3,3.8,3.6,6.1,3.9,6.5c0.5,0.7,2,3.7,3.2,6.1c0.5,1,1,1.9,1.2,2.3
		c0.3,0.5,0.5,1,0.3,1.3c-0.1,0.4-0.5,0.5-0.7,0.6C32.8,46.6,32.5,46.6,32.2,46.6z"/>
</g>
<g>
	<path class="st0" d="M69.7,195.9c-0.6,0-1.4-0.2-1.8-0.6c-0.3-0.3-0.4-0.6-0.3-0.9l0.2-1.3c0.4-2.8,1.4-10.2,1.5-11.1
		c0.1-0.8,0.6-3.5,1.3-6.8c0.2-1.1,0.4-2.1,0.5-2.5c0.1-0.6,0.2-1,0.6-1.2c0,0,0.1,0,0.1-0.1c-0.2-0.1-0.4-0.2-0.6-0.3
		c-0.1-0.1-0.6-0.3-0.3-0.9c0,0,0.9-2.1,1.7-1.8l0,0c0.8,0.2,7.8,2.7,6.7,14.6c-1.1,11.4-8.4,12.7-9.2,12.8
		C70,195.9,69.8,195.9,69.7,195.9z M74.1,173.5c-0.2,1.5-1.2,8.1-1.6,10.1c-0.2,1.1-0.9,5.1-1.4,8.7c1.4-1,3.8-3.9,4.5-8.3
		C76.6,178.6,75.5,175.4,74.1,173.5z"/>
</g>
<path class="st0" d="M146.2,194.5L146.2,194.5c0-0.1-2.4-12.5-2.7-14.6c-0.3-1.7-1.2-6.4-1.7-8.9c1-0.2,1.5-0.3,1.7-0.3
	c0.6-0.2,0.9-0.7,0.9-1.4c-0.1-1.4-0.9-1.7-1.7-1.7l0,0c-1.3,0-5.8,0.7-7.4,1.2c-0.2,0-0.3,0.2-0.4,0.3c-0.1,0.2-0.3,0.5,0.2,1.8
	c0.2,0.4,0.4,0.9,1.2,0.9c0.1,0,0.2,0,0.2,0c0.2,0,0.3,0,0.7-0.1l1.3-0.2c0.1,0,0.1,0,0.2,0c0,0.3,0.1,0.7,0.2,1.1
	c0.5,3.3,0.9,6.1,1.1,6.8c0.2,0.9,1.8,8.3,2.3,11.1l1,4.5l0.1,0.1c0.3,0.3,0.8,0.4,1.3,0.4c0.4,0,0.8-0.1,1.1-0.2
	C146.1,195.2,146.2,194.9,146.2,194.5z"/>
<g>
	<path class="st0" d="M91.9,199L91.9,199c-4.5,0-6.2-3.7-6.2-13.1c0.1-7.3,1.3-12.1,3.7-14.3c1.6-1.5,3.3-1.4,4-1.4h0.4
		c0.2,0.1,0.3,0.1,0.5,0.1c2.3,0.6,5.7,1.5,4.8,13.3c-0.6,13.4-2.5,14.4-6.5,15.2L91.9,199z M93.1,173.6c-0.4,0-0.9,0.2-1.2,0.5
		c-1.1,1-2.5,3.8-2.6,11.5c0,7.2,0.4,9.7,2.7,9.7c1.9,0,2.9,0,3.4-10.8l0,0c0.6-8.2,0.1-10.6-2-10.9
		C93.3,173.6,93.2,173.6,93.1,173.6z"/>
</g>
<g>
	<path class="st0" d="M157.5,192.3c-0.5,0-1.1-0.1-1.5-0.5l-0.1-0.1l-0.6-4.6c-0.4-2.8-1.4-10.2-1.5-11.1c-0.2-0.8-0.4-3.6-0.6-6.9
		c-0.1-1.1-0.1-2.1-0.2-2.5c-0.1-1,0.6-1.7,1.8-2.1h0.2h0.1c0.2,0,2-0.4,2.3,0.5l1.8,4.1c1.1,2.6,4,9.5,4.5,10.4
		c0.3,0.7,1.3,3.4,2.4,6.5c0.4,1.1,0.7,2,0.8,2.4l0,0c0.3,0.7,0.3,1.1,0.1,1.4c-0.2,0.3-0.5,0.4-0.6,0.4c-0.3,0.3-0.9,0.2-1.2,0.1
		c-0.3-0.1-1-0.3-1.2-0.8c-0.2-0.4-3.2-7.6-4-9.7c-0.1-0.3-0.3-0.9-0.6-1.6c-0.6,0.2-1.2,0.5-1.8,0.6c0.5,4.2,1.5,12.8,1.5,12.8
		c0,0.3-0.2,0.7-0.5,0.8C158.2,192.3,157.8,192.3,157.5,192.3z M157.9,191.5L157.9,191.5L157.9,191.5z M156.7,171.6
		c0.1,1.2,0.3,2.4,0.4,3.4c0.3-0.1,0.6-0.2,0.9-0.3C157.5,173.7,157.1,172.6,156.7,171.6z M156.3,165.2L156.3,165.2L156.3,165.2z"/>
</g>
<g>
	<path class="st0" d="M46,39.7c-0.4,0-0.9-0.1-1.2-0.4l-0.1-0.1l-1.2-4.4c-0.7-2.8-2.7-10.1-3-11c-0.2-0.7-0.8-3.5-1.5-6.8
		c-0.2-1.1-0.4-2.1-0.5-2.5c-0.2-0.9,0.3-1.8,1.5-2.3l0.2-0.1h0.1c0.2-0.1,1.9-0.7,2.3,0.2l2.2,3.7c1.4,2.5,5.3,9,5.8,9.8
		c0.4,0.6,1.7,3.1,3.2,6.1c0.5,1,1,1.9,1.2,2.3l0,0c0.4,0.7,0.4,1,0.3,1.4c-0.1,0.3-0.4,0.4-0.5,0.5c-0.3,0.3-0.9,0.3-1.2,0.3
		s-1-0.1-1.3-0.6c-0.2-0.4-4.2-7.2-5.2-9.1c-0.2-0.3-0.4-0.8-0.8-1.5c-0.6,0.3-1.2,0.6-1.7,0.8c1,4.1,3.1,12.4,3.1,12.5
		c0.1,0.3-0.1,0.7-0.4,0.9C47,39.5,46.5,39.7,46,39.7z M42.9,19.1c0.3,1.2,0.6,2.4,0.8,3.3c0.3-0.1,0.6-0.3,0.8-0.4
		C44,21.1,43.5,20.1,42.9,19.1z"/>
</g>
<g>
	<path class="st0" d="M117.7,27.9c-0.4,0-0.7-0.2-0.9-0.3c-0.2-0.2-0.8-0.6-0.9-1.1c0-0.5-0.6-8.3-0.6-10.5c0-0.3,0-0.9-0.1-1.7
		c-0.6,0-1.3,0-1.9,0c-0.9,4.1-2.7,12.5-2.7,12.6c-0.1,0.3-0.4,0.6-0.8,0.6c-0.6,0.1-1.8-0.3-2.2-1.1l-0.1-0.2l0.9-4.4
		c0.6-2.8,2.1-10.2,2.2-11.2c0.1-0.8,0.8-3.5,1.7-6.7c0.3-1.1,0.5-2,0.6-2.5c0.2-0.9,1.1-1.5,2.4-1.4h0.2h0.1c0.2,0,2,0.3,2,1.2
		l0.3,4.4c0.2,2.8,0.7,10.3,0.9,11.2c0.1,0.8,0.1,3.6,0.2,6.9c0,1.2,0,2.1,0,2.6l0,0c0,0.7-0.1,1.1-0.3,1.4
		c-0.2,0.2-0.5,0.2-0.7,0.2C117.8,27.9,117.7,27.9,117.7,27.9z M114.1,10.7c0.3,0,0.6,0,0.9,0c-0.1-1.1-0.1-2.3-0.2-3.4
		C114.5,8.6,114.3,9.8,114.1,10.7z M116.5,1.2L116.5,1.2L116.5,1.2z"/>
</g>
<g>
	<path class="st0" d="M177.1,47.4c-0.2,0-0.4-0.1-0.5-0.2c-0.4-0.1-0.8-0.5-1-0.8c-0.2-0.2-0.5-0.9-0.3-1.4c0.2-0.4,3.1-7.7,4-9.7
		c0.1-0.3,0.4-0.8,0.7-1.5c-0.6-0.2-1.2-0.5-1.7-0.8c-2.6,3.3-7.8,10.1-7.9,10.1c-0.2,0.3-0.6,0.4-1,0.2c-0.6-0.2-1.5-1.1-1.5-1.9
		v-0.2l2.8-3.7c1.7-2.3,6.2-8.3,6.7-9.1c0.4-0.6,2.2-2.8,4.4-5.3c0.7-0.9,1.4-1.6,1.6-1.9c0.6-0.8,1.6-0.8,2.8-0.2l0.2,0.1
		c0,0,0.1,0,0.1,0.1c0.2,0.1,1.7,1.1,1.3,1.9l-1.6,4.1c-1,2.6-3.8,9.7-4.1,10.6c-0.3,0.8-1.7,3.8-2.8,6.3c-0.5,1.1-0.9,1.9-1.1,2.3
		c-0.3,0.7-0.5,1-0.9,1.1C177.2,47.4,177.1,47.4,177.1,47.4z M180.5,30.1c0.3,0.2,0.6,0.3,0.8,0.4c0.4-1,0.9-2.1,1.3-3.1
		C181.9,28.4,181.1,29.4,180.5,30.1z"/>
</g>
<g>
	<path class="st0" d="M131.1,29c-0.4,0-1.5-0.1-5-0.6c-0.1,0-0.3,0-0.5-0.1h-0.2c-0.6-0.2-1-0.5-1.2-0.9l-0.1-0.2l0.7-4.6
		c0.4-2.8,1.5-10.2,1.6-11.2c0.1-0.8,0.6-3.5,1.3-6.8c0.2-1.1,0.4-2.1,0.5-2.5c0.1-0.7,0.3-1.1,0.6-1.3s0.6-0.1,0.7,0
		c0.4-0.1,0.9,0.3,1.1,0.5c0.2,0.2,0.7,0.7,0.6,1.3c-0.1,0.5-1.3,8.2-1.7,10.4c-0.3,1.6-1.5,9-2,12c1.3,0.2,3.3,0.5,3.9,0.7
		c0.9,0.3,1,0.7,1,1.4c0,0.9-0.5,1.6-1.2,1.7C131.3,29,131.2,29,131.1,29z"/>
</g>
<g>
	<path class="st0" d="M144.8,32.4c-0.6,0-2-0.4-4.5-1.1l-0.3-0.1c-1.6-0.5-2.1-0.7-1.9-2.1c0.1-0.5,2.2-8.1,2.8-10.2s4-14.2,4-14.3
		c0.1-0.2,0.2-0.4,0.4-0.5c0.3-0.2,0.7-0.1,1,0l0,0l0.3,0.1c0.1,0,0.8,0.3,1.7,0.7c1.3,0.5,2.9,1.1,3.5,1.3c1.3,0.4,1.3,1.1,1.1,1.8
		c-0.1,0.4-0.5,1.6-1.4,1.6c-0.5,0-2.3-0.6-3.4-1c-0.4-0.1-0.8-0.3-1.1-0.4l-0.8,3.2c1.2,0.2,2.7,0.5,3.3,0.5
		c1.4,0.2,1.5,0.9,1.5,1.5c0,0.4-0.1,1.6-1,1.9c-0.5,0.1-2.4-0.1-3.5-0.3c-0.4-0.1-0.8-0.1-1.1-0.2c-0.9,3.5-1.4,5.6-1.5,6
		c-0.1,0.8-1,3.5-2.1,6.7l-0.1,0.4c1.2,0.4,2.6,0.8,3.1,0.9c1.3,0.3,1.4,1,1.3,1.7c-0.1,0.4-0.3,1.6-1.3,1.7
		C144.9,32.4,144.8,32.4,144.8,32.4z"/>
</g>
<g>
	<path class="st0" d="M162.4,38.8c-0.5,0-1.5-0.2-2.2-0.5c-0.4-0.2-1.9-0.7-3.2-1.2c-1-0.3-1.9-0.7-2.2-0.8c-0.8-0.3-2.8-1.4-3-1.7
		c-0.3-0.3-0.4-1,0-1.4c0.1-0.1,0.3-0.3,0.5-0.5c0-0.1,0.1-0.1,0.1-0.2c0.1-0.1,0.3-0.3,0.6-0.6c1.6-1.7,5.4-5.7,6.7-7
		c1.1-1.1,6-6.2,8.5-8.9l-1.1-0.4c-1.2-0.4-2.8-1-4.7-1.9l-0.1-0.1c-0.5-0.2-0.8-0.7-0.8-1.4c0-0.6,0.4-1,0.9-1.5l0.1-0.1
		c0.4-0.5,1-0.3,1.6-0.1l0.4,0.1c0.6,0.2,7.6,3,8.2,3.4l0,0c0.9,0.5,0.5,1.6,0.3,2c0,0.1-0.1,0.1-0.1,0.2c-0.2,0.7-0.6,0.9-1.3,0.8
		l-2.5,2.8c-1.9,2.1-7,7.6-7.6,8.3c-0.5,0.6-2.5,2.6-4.9,4.9l-0.1,0.1c1.1,0.4,2.3,0.8,2.3,0.8s1.6,0.6,1.9,0.7
		c0.3,0.1,2.3,0.9,2.8,1.3c0.6,0.4,0.4,1.2,0.4,1.6v0.2c-0.1,0.6-0.5,1.1-1,1.2C162.6,38.7,162.5,38.8,162.4,38.8z M163.2,11.1
		L163.2,11.1L163.2,11.1z"/>
</g>
<g>
	<path class="st0" d="M63.9,33c-0.3,0-0.5-0.1-0.7-0.1c-0.3-0.1-0.9-0.4-1.1-0.9c-0.1-0.4-2.4-7.9-3-10.1c-0.4-1.5-2.3-8.1-3.3-11.4
		h-0.2c-0.6,0.2-0.9,0.3-1.1,0.3c-0.1,0-0.2,0-0.2,0c-0.1,0-0.3,0.1-0.6,0.1c-0.5,0-0.9-0.3-1.2-0.8c-0.2-0.4-0.3-0.9-0.3-1.3
		c0-0.5,0.3-0.8,0.9-1.1c0.2-0.1,6.1-1.6,6.4-1.7c0.8-0.2,1.1,0.1,1.4,0.4c0.4,0.4,0.6,1.5,0.5,1.8c-0.1,0.6-0.9,1-1.5,1.1
		c-0.2,0-0.6,0.2-1.1,0.3l0.5,1.7c0.9,2.9,3,9.7,3.3,10.6c0.3,0.7,1,3.5,1.7,6.7c0.3,1.1,0.5,2,0.6,2.5l0,0c0.2,0.7,0.2,1.1,0,1.4
		c-0.2,0.3-0.5,0.3-0.6,0.4C64.3,33,64.1,33,63.9,33z"/>
</g>
<g>
	<path class="st0" d="M91.6,27.8c-0.6,0-1.8-0.6-1.9-1.5c0-0.4-0.5-8.3-0.6-10.5c0-1.1-0.2-5-0.4-8.5c-0.3-5-0.3-5.9-0.3-6.1
		c0.3-1.4,5.8-1.3,7.9-0.9c3.9,0.8,4.5,3.8,4.5,4.3c0.1,0.3,0.4,1.6-0.3,2.9c-0.6,1.2-1.8,2.1-3.6,2.6c1.8,4.6,3,7.8,3,7.8l2.6,6.3
		c0.2,0.4,0.3,1.3-0.4,1.9c-0.8,0.8-1.6,0.7-1.9,0.4c-0.1-0.1-0.3-0.2-4.8-10.6l-1.9-5.5l-1.3,0.1c0.3,4.4,0.4,5.7,0.5,6
		c0.1,0.8,0.1,3.6,0.2,6.9c0,1.2,0,2.1,0,2.6C92.8,27.1,92.6,27.8,91.6,27.8L91.6,27.8z M91.9,7.4c2.8,0,4.9-0.4,5.5-1.1
		c0.2-0.3,0.3-0.5,0.2-0.9c-0.4-1.6-2.4-2.1-5.9-1.5L91.9,7.4z"/>
</g>
<g>
	<path class="st0" d="M77.3,29.6c-3.5,0-5.6-3.6-7.2-12.3c-1.4-8-1.5-11.2-1.5-12.3c0-0.5,0.3-0.8,0.8-0.9l1-0.1
		c0.5-0.1,0.9,0.3,1,0.7c0.2,1.4,1.1,6.6,2,12c1.3,7.1,2.1,9.5,4.4,9.1c2.5-0.6,2.4-2,1.2-9.2l-0.3-1.8c-0.5-3.1-1.4-7.2-1.9-9.4
		c-0.2-0.8-0.3-1.4-0.3-1.6c-0.1-0.5,0.2-1,0.7-1.3S78.5,2,79,2.4c0.9,0.6,3.9,15.9,4,16.1c1.4,8.6-1.3,9.7-4.3,10.9
		c-0.2,0.1-0.2,0.1-0.3,0.1C77.9,29.6,77.6,29.6,77.3,29.6z M69.5,5.2L69.5,5.2L69.5,5.2z M69.6,5.1L69.6,5.1L69.6,5.1z"/>
</g>
</svg>
